<?xml version="1.0" standalone="no"?>
<!DOCTYPE svg PUBLIC "-//W3C//DTD SVG 20010904//EN"
 "http://www.w3.org/TR/2001/REC-SVG-20010904/DTD/svg10.dtd">
<svg version="1.0" xmlns="http://www.w3.org/2000/svg"
 width="225.000000pt" height="225.000000pt" viewBox="0 0 225.000000 225.000000"
 preserveAspectRatio="xMidYMid meet">
<metadata>
Created by potrace 1.15, written by Peter Selinger 2001-2017
</metadata>
<g transform="translate(0.000000,225.000000) scale(0.100000,-0.100000)"
fill="#000000" stroke="none">
<path d="M933 2025 c-360 -82 -635 -362 -709 -722 -20 -96 -15 -319 10 -407
78 -278 277 -510 529 -615 138 -57 187 -66 362 -66 175 0 224 9 362 67 206 85
396 275 482 481 57 138 66 187 66 362 0 175 -9 224 -66 362 -86 206 -276 396
-481 481 -131 55 -181 64 -343 68 -103 2 -169 -1 -212 -11z m246 -411 c30 -8
69 -30 92 -51 l39 -35 0 41 0 41 61 0 61 0 -4 -402 c-3 -398 -3 -404 -27 -455
-47 -106 -142 -163 -281 -170 -70 -4 -97 -1 -150 17 -101 34 -160 100 -160
180 l0 41 53 -7 c54 -7 60 -11 89 -64 22 -38 71 -60 139 -60 142 0 209 74 209
231 l0 40 -33 -25 c-83 -64 -206 -76 -302 -31 -158 75 -228 309 -153 514 59
161 210 242 367 195z"/>
<path d="M1034 1501 c-45 -21 -85 -67 -103 -120 -6 -19 -11 -80 -11 -136 0
-89 3 -107 26 -153 36 -73 72 -96 159 -100 65 -3 73 -1 111 26 48 35 72 82 87
168 13 75 0 173 -31 232 -43 84 -153 123 -238 83z"/>
</g>
</svg>
