<?xml version="1.0" encoding="utf-8"?>
<!-- Generator: Adobe Illustrator 24.0.1, SVG Export Plug-In . SVG Version: 6.00 Build 0)  -->
<svg version="1.1" id="Layer_1" xmlns="http://www.w3.org/2000/svg" xmlns:xlink="http://www.w3.org/1999/xlink" x="0px" y="0px"
	 viewBox="0 0 150 150" style="enable-background:new 0 0 150 150;" xml:space="preserve">
<style type="text/css">
	.st0{fill:#382110;}
	.st1{fill:#FFFFFF;}
</style>
<g id="surface1">
	<path class="st0" d="M144.1,78.6c-1.8,36-32.2,65.7-69.3,65.8c-37.1,0-67.6-29.8-69.4-65.8c-2-38.7,29.6-73,69.3-73
		C114.5,5.6,146.1,39.9,144.1,78.6z"/>
	<path class="st1" d="M101.5,40.3c0-1.3-0.1-2.5-0.2-3.8c-2.7,0-5,0-7.5,0c0,2.9,0,5.5,0,8.2C81.8,28,57.1,33.3,50.1,50
		c-4.5,10.7-4.2,21.5,0.4,32.1c4.9,11.1,19,15.8,30.1,12.7c0.6-0.1,1.3-0.3,2-0.5c1.1-0.3,2-0.7,2.6-1.1c1.5-0.6,3.3-1.6,5.1-3
		c1.4-1.1,2.7-2.3,3.6-3.4c-0.3,4.2-0.4,8.4-1.1,12.5c-0.8,5.1-3.2,9.5-8,12.1c-10.6,5.6-23.3,1.3-28.1-9.5c-2.4,0-4.9,0-7.4,0
		c0.5,7.1,4.3,11.8,10.2,14.8c7.1,3.6,14.6,4,22.3,2.8c9.8-1.6,16.2-7.1,18.5-16.9c0.8-3.5,1.2-7.1,1.3-10.7
		C101.6,74.7,101.5,57.5,101.5,40.3z M92.7,76.3c-1.4,4-3.8,7.2-6.8,9.4c-0.8,0.6-4.5,3.2-10,3.4c-0.3,0-1.2,0.1-2.3,0
		c0,0-0.1,0-0.1,0c-8-0.5-14.1-5.2-16.8-12.9c-2.3-6.5-2.3-13.1-0.7-19.7c2.4-9.5,9.3-15.4,18-15.6c0.2,0,0.3,0,0.3,0
		c4.6-0.4,8.1,1.5,9.3,2.1c4.7,2.5,8.3,7.2,9.8,13.5C95,63.2,95,69.8,92.7,76.3z"/>
</g>
</svg>
