<?xml version="1.0" ?><svg style="enable-background:new 0 0 512 512;" version="1.1" viewBox="0 0 512 512" xml:space="preserve" xmlns="http://www.w3.org/2000/svg" xmlns:xlink="http://www.w3.org/1999/xlink"><style type="text/css">
	.st0{fill:#EAE6D2;}
	.st1{fill:#382110;}
</style><g id="Edges"/><g id="Background_1_"><path class="st0" d="M492,268.3c-6.3,122.8-109.9,224.4-236.5,224.5c-126.7,0.1-230.7-101.6-237-224.5   C11.7,136.2,119.6,19.2,255.2,19.2C390.9,19.2,498.7,136.3,492,268.3z"/></g><g id="Symbol"><path class="st1" d="M346.6,137.5c0-4.3-0.4-8.6-0.6-12.8c-9.2,0-16.9,0-25.6,0c0,9.8,0,18.9,0,28.1   c-41.1-57.3-125.6-39.2-149.4,17.9c-15.2,36.6-14.4,73.4,1.5,109.4c16.8,38,65,54.1,102.8,43.4c2-0.3,4.3-0.9,6.8-1.7   c3.6-1.1,6.7-2.5,8.7-3.6c5.2-2.1,11.4-5.6,17.5-10.3c4.9-3.8,9.1-7.8,12.4-11.5c-0.9,14.3-1.3,28.7-3.6,42.8   c-2.8,17.4-10.8,32.4-27.4,41.2c-36.2,19.2-79.6,4.6-96-32.4c-8.2,0-16.6,0-25.4,0c1.8,24.4,14.7,40.3,34.7,50.6   c24.1,12.4,49.9,13.7,76.2,9.4c33.5-5.5,55.3-24.4,63-57.8c2.7-11.9,4.2-24.2,4.3-36.4C346.8,255,346.6,196.2,346.6,137.5z    M316.5,260.3c-4.8,13.8-12.8,24.7-23.3,32.2c-2.6,1.9-15.4,10.8-34.1,11.7c-1.1,0.1-4.2,0.2-8,0c-0.1,0.1-0.3,0.1-0.4,0.1   c-27.3-1.7-48.2-17.6-57.4-43.9c-7.7-22.1-7.9-44.6-2.3-67.1c8.1-32.5,31.6-52.4,61.6-53.2c0.7-0.1,1.1-0.1,1.1-0.1   c15.6-1.4,27.8,5.1,31.6,7.2c16.1,8.6,28.2,24.6,33.5,46C324.4,215.7,324.2,238.2,316.5,260.3z"/></g></svg>